<svg xmlns="http://www.w3.org/2000/svg" width="1600" height="1000" viewBox="0 0 1600 1000" role="img" aria-labelledby="title desc">
  <title id="title">Research visualization cover</title>
  <desc id="desc">Visualization-only research cover with generative AI programming education signals.</desc>
  <defs>
    <linearGradient id="paper" x1="0" y1="0" x2="1" y2="1">
      <stop offset="0" stop-color="#f6fbff"/>
      <stop offset="0.56" stop-color="#eef9fd"/>
      <stop offset="1" stop-color="#dbeefa"/>
    </linearGradient>
    <radialGradient id="wash" cx="70%" cy="32%" r="62%">
      <stop offset="0" stop-color="#48d5e8" stop-opacity="0.28"/>
      <stop offset="0.48" stop-color="#d9f4fb" stop-opacity="0.2"/>
      <stop offset="1" stop-color="#f6fbff" stop-opacity="0"/>
    </radialGradient>
    <pattern id="grid" width="56" height="56" patternUnits="userSpaceOnUse">
      <path d="M56 0H0V56" fill="none" stroke="#bad0df" stroke-width="1" opacity="0.32"/>
    </pattern>
    <filter id="paperShadow" x="-20%" y="-20%" width="140%" height="140%">
      <feDropShadow dx="0" dy="18" stdDeviation="18" flood-color="#123047" flood-opacity="0.08"/>
    </filter>
    <marker id="arrow" viewBox="0 0 10 10" refX="8.5" refY="5" markerWidth="7" markerHeight="7" orient="auto-start-reverse">
      <path d="M0 0L10 5L0 10Z" fill="#0f5ea8"/>
    </marker>
  </defs>
  <rect width="1600" height="1000" fill="url(#paper)"/>
  <rect width="1600" height="1000" fill="url(#wash)"/>
  <rect width="1600" height="1000" fill="url(#grid)" opacity="0.52"/>
  <rect x="54" y="54" width="1492" height="892" rx="42" fill="none" stroke="#bad0df" stroke-width="2"/>
  <g id="research-visualization-poster" transform="translate(170 44) scale(0.87)">
    <g class="science-editorial-figure" data-style="editorial-science" data-kind="programming-review">
      <rect x="116" y="92" width="1368" height="820" rx="44" fill="#ecf9fb" stroke="#bad0df" stroke-width="2"/>
      <path d="M152 144H1448M152 736H1448" stroke="#ffffff" stroke-width="1.5" opacity="0.68"/>
      <rect data-role="figure-panel" x="150" y="126" width="1300" height="720" rx="28" fill="#ffffff" opacity="0.58" filter="url(#paperShadow)"/>
      <rect x="150" y="126" width="1300" height="720" rx="28" fill="none" stroke="#bad0df" stroke-width="1.5" opacity="0.86"/>
      <g data-role="grid">
        <path d="M176 152V820M280 152V820M384 152V820M488 152V820M592 152V820M696 152V820M800 152V820M904 152V820M1008 152V820M1112 152V820M1216 152V820M1320 152V820M1424 152V820" stroke="#bad0df" stroke-width="1" opacity="0.24"/>
        <path d="M176 152H1424M176 256H1424M176 360H1424M176 464H1424M176 568H1424M176 672H1424M176 776H1424" stroke="#bad0df" stroke-width="1" opacity="0.24"/>
      </g>
      <g data-role="primary-visual" transform="translate(-170 -178) scale(1.3)">
        <rect x="286" y="318" width="752" height="420" rx="42" fill="#d9f4fb" stroke="#0f5ea8" stroke-width="5"/>
        <rect x="332" y="366" width="660" height="78" rx="24" fill="#ffffff" stroke="#bad0df" stroke-width="2"/>
        <circle cx="382" cy="405" r="18" fill="#48d5e8"/>
        <text x="426" y="414" fill="#123047" font-family="Inter, Arial, sans-serif" font-size="24" font-weight="920">programming education</text>
        <rect x="336" y="486" width="292" height="156" rx="24" fill="#ffffff" stroke="#bad0df" stroke-width="2"/>
        <text x="376" y="542" fill="#123047" font-family="Inter, Arial, sans-serif" font-size="25" font-weight="920">student</text>
        <text x="376" y="574" fill="#123047" font-family="Inter, Arial, sans-serif" font-size="25" font-weight="920">reasoning</text>
        <path d="M378 610H542M378 636H504" stroke="#0f5ea8" stroke-width="9" stroke-linecap="round" opacity="0.28"/>
        <rect x="690" y="486" width="302" height="156" rx="24" fill="#ffffff" stroke="#bad0df" stroke-width="2"/>
        <text x="730" y="542" fill="#123047" font-family="Inter, Arial, sans-serif" font-size="25" font-weight="920">generated</text>
        <text x="730" y="574" fill="#123047" font-family="Inter, Arial, sans-serif" font-size="25" font-weight="920">code</text>
        <path d="M732 610H904M732 636H868" stroke="#0f5ea8" stroke-width="9" stroke-linecap="round" opacity="0.28"/>
        <circle cx="1180" cy="380" r="92" fill="#123047"/>
        <text x="1180" y="372" text-anchor="middle" fill="#d9f4fb" font-family="Inter, Arial, sans-serif" font-size="24" font-weight="920">curriculum</text>
        <text x="1180" y="404" text-anchor="middle" fill="#d9f4fb" font-family="Inter, Arial, sans-serif" font-size="24" font-weight="920">fit</text>
        <circle cx="1180" cy="604" r="92" fill="#48d5e8"/>
        <text x="1180" y="596" text-anchor="middle" fill="#123047" font-family="Inter, Arial, sans-serif" font-size="24" font-weight="950">assessment</text>
        <text x="1180" y="628" text-anchor="middle" fill="#123047" font-family="Inter, Arial, sans-serif" font-size="24" font-weight="950">check</text>
        <path d="M1038 404H1078" stroke="#0f5ea8" stroke-width="6" stroke-linecap="round" marker-end="url(#arrow)"/>
        <path d="M1038 596H1078" stroke="#0f5ea8" stroke-width="6" stroke-linecap="round" marker-end="url(#arrow)"/>
        <rect x="356" y="744" width="184" height="48" rx="16" fill="#ffffff" stroke="#bad0df" stroke-width="1.5"/>
        <circle cx="382" cy="768" r="7" fill="#48d5e8"/>
        <text x="404" y="776" fill="#0f172a" font-family="Inter, Arial, sans-serif" font-size="17" font-weight="820">debugging</text>
        <rect x="580" y="744" width="186" height="48" rx="16" fill="#ffffff" stroke="#bad0df" stroke-width="1.5"/>
        <circle cx="606" cy="768" r="7" fill="#48d5e8"/>
        <text x="628" y="776" fill="#0f172a" font-family="Inter, Arial, sans-serif" font-size="17" font-weight="820">explain code</text>
        <rect x="806" y="744" width="188" height="48" rx="16" fill="#ffffff" stroke="#bad0df" stroke-width="1.5"/>
        <circle cx="832" cy="768" r="7" fill="#48d5e8"/>
        <text x="854" y="776" fill="#0f172a" font-family="Inter, Arial, sans-serif" font-size="17" font-weight="820">self regulate</text>
      </g>
    </g>
  </g>
</svg>
