<svg xmlns="http://www.w3.org/2000/svg" width="1600" height="1000" viewBox="0 0 1600 1000" role="img" aria-labelledby="title desc">
  <title id="title">Research visualization cover</title>
  <desc id="desc">Visualization-only research cover with diagram nodes and explanatory labels.</desc>
  <defs>
    <linearGradient id="paper" x1="0" y1="0" x2="1" y2="1">
      <stop offset="0" stop-color="#f3fbff"/>
      <stop offset="0.52" stop-color="#edf8fd"/>
      <stop offset="1" stop-color="#dceff7"/>
    </linearGradient>
    <radialGradient id="wash" cx="72%" cy="35%" r="62%">
      <stop offset="0" stop-color="#48d5e8" stop-opacity="0.28"/>
      <stop offset="0.45" stop-color="#d9f4fb" stop-opacity="0.22"/>
      <stop offset="1" stop-color="#f3fbff" stop-opacity="0"/>
    </radialGradient>
    <pattern id="grid" width="56" height="56" patternUnits="userSpaceOnUse">
      <path d="M56 0H0V56" fill="none" stroke="#bad0df" stroke-width="1" opacity="0.32"/>
    </pattern>
    <filter id="paperShadow" x="-20%" y="-20%" width="140%" height="140%">
      <feDropShadow dx="0" dy="18" stdDeviation="18" flood-color="#123047" flood-opacity="0.08"/>
    </filter>
    <marker id="arrow" viewBox="0 0 10 10" refX="8.5" refY="5" markerWidth="7" markerHeight="7" orient="auto-start-reverse">
      <path d="M0 0L10 5L0 10Z" fill="#0f5ea8"/>
    </marker>
  </defs>
  <rect width="1600" height="1000" fill="url(#paper)"/>
  <rect width="1600" height="1000" fill="url(#wash)"/>
  <rect width="1600" height="1000" fill="url(#grid)" opacity="0.52"/>
  <rect x="54" y="54" width="1492" height="892" rx="42" fill="none" stroke="#bad0df" stroke-width="2"/>
  <!-- research-visualization-poster -->
  <g id="research-visualization-poster" transform="translate(170 44) scale(0.87)">
    
    <g class="science-editorial-figure" data-style="editorial-science" data-kind="mining">
      <rect x="116" y="92" width="1368" height="820" rx="44" fill="#eef9f2" stroke="#bad0df" stroke-width="2"/>
      <path d="M152 144H1448M152 736H1448" stroke="#ffffff" stroke-width="1.5" opacity="0.68"/>
      
    <rect data-role="figure-panel" x="150" y="126" width="1300" height="720" rx="28" fill="rgba(255,255,255,0.52)" opacity="1" filter="url(#paperShadow)"/>
    <rect x="150" y="126" width="1300" height="720" rx="28" fill="none" stroke="#bad0df" stroke-width="1.5" opacity="0.86"/>
  
      <g data-role="grid"><path d="M176 152V820" stroke="#bad0df" stroke-width="1" opacity="0.24"/><path d="M228 152V820" stroke="#bad0df" stroke-width="1" opacity="0.24"/><path d="M280 152V820" stroke="#bad0df" stroke-width="1" opacity="0.24"/><path d="M332 152V820" stroke="#bad0df" stroke-width="1" opacity="0.24"/><path d="M384 152V820" stroke="#bad0df" stroke-width="1" opacity="0.24"/><path d="M436 152V820" stroke="#bad0df" stroke-width="1" opacity="0.24"/><path d="M488 152V820" stroke="#bad0df" stroke-width="1" opacity="0.24"/><path d="M540 152V820" stroke="#bad0df" stroke-width="1" opacity="0.24"/><path d="M592 152V820" stroke="#bad0df" stroke-width="1" opacity="0.24"/><path d="M644 152V820" stroke="#bad0df" stroke-width="1" opacity="0.24"/><path d="M696 152V820" stroke="#bad0df" stroke-width="1" opacity="0.24"/><path d="M748 152V820" stroke="#bad0df" stroke-width="1" opacity="0.24"/><path d="M800 152V820" stroke="#bad0df" stroke-width="1" opacity="0.24"/><path d="M852 152V820" stroke="#bad0df" stroke-width="1" opacity="0.24"/><path d="M904 152V820" stroke="#bad0df" stroke-width="1" opacity="0.24"/><path d="M956 152V820" stroke="#bad0df" stroke-width="1" opacity="0.24"/><path d="M1008 152V820" stroke="#bad0df" stroke-width="1" opacity="0.24"/><path d="M1060 152V820" stroke="#bad0df" stroke-width="1" opacity="0.24"/><path d="M1112 152V820" stroke="#bad0df" stroke-width="1" opacity="0.24"/><path d="M1164 152V820" stroke="#bad0df" stroke-width="1" opacity="0.24"/><path d="M1216 152V820" stroke="#bad0df" stroke-width="1" opacity="0.24"/><path d="M1268 152V820" stroke="#bad0df" stroke-width="1" opacity="0.24"/><path d="M1320 152V820" stroke="#bad0df" stroke-width="1" opacity="0.24"/><path d="M1372 152V820" stroke="#bad0df" stroke-width="1" opacity="0.24"/><path d="M1424 152V820" stroke="#bad0df" stroke-width="1" opacity="0.24"/><path d="M176 152H1424" stroke="#bad0df" stroke-width="1" opacity="0.24"/><path d="M176 204H1424" stroke="#bad0df" stroke-width="1" opacity="0.24"/><path d="M176 256H1424" stroke="#bad0df" stroke-width="1" opacity="0.24"/><path d="M176 308H1424" stroke="#bad0df" stroke-width="1" opacity="0.24"/><path d="M176 360H1424" stroke="#bad0df" stroke-width="1" opacity="0.24"/><path d="M176 412H1424" stroke="#bad0df" stroke-width="1" opacity="0.24"/><path d="M176 464H1424" stroke="#bad0df" stroke-width="1" opacity="0.24"/><path d="M176 516H1424" stroke="#bad0df" stroke-width="1" opacity="0.24"/><path d="M176 568H1424" stroke="#bad0df" stroke-width="1" opacity="0.24"/><path d="M176 620H1424" stroke="#bad0df" stroke-width="1" opacity="0.24"/><path d="M176 672H1424" stroke="#bad0df" stroke-width="1" opacity="0.24"/><path d="M176 724H1424" stroke="#bad0df" stroke-width="1" opacity="0.24"/><path d="M176 776H1424" stroke="#bad0df" stroke-width="1" opacity="0.24"/></g>
      <g data-role="primary-visual" transform="translate(-240 -340) scale(1.6)">
      <path d="M266 632H896M266 632V292" stroke="#123047" stroke-width="3" stroke-linecap="round"/>
      <ellipse cx="462" cy="438" rx="152" ry="88" fill="#48d5e8" opacity="0.1" stroke="#48d5e8" stroke-width="2"/>
      <ellipse cx="704" cy="478" rx="142" ry="100" fill="#0f5ea8" opacity="0.08" stroke="#0f5ea8" stroke-width="2"/>
      <circle cx="278" cy="314" r="8" fill="#48d5e8" opacity="0.66"/><circle cx="361" cy="361" r="6" fill="#0f5ea8" opacity="0.66"/><circle cx="444" cy="408" r="6" fill="#123047" opacity="0.42"/><circle cx="527" cy="455" r="8" fill="#48d5e8" opacity="0.66"/><circle cx="610" cy="502" r="6" fill="#0f5ea8" opacity="0.66"/><circle cx="693" cy="549" r="6" fill="#123047" opacity="0.42"/><circle cx="776" cy="596" r="8" fill="#48d5e8" opacity="0.66"/><circle cx="859" cy="351" r="6" fill="#0f5ea8" opacity="0.66"/><circle cx="352" cy="398" r="6" fill="#123047" opacity="0.42"/><circle cx="435" cy="445" r="8" fill="#48d5e8" opacity="0.66"/><circle cx="518" cy="492" r="6" fill="#0f5ea8" opacity="0.66"/><circle cx="601" cy="539" r="6" fill="#123047" opacity="0.42"/><circle cx="684" cy="586" r="8" fill="#48d5e8" opacity="0.66"/><circle cx="767" cy="341" r="6" fill="#0f5ea8" opacity="0.66"/><circle cx="850" cy="388" r="6" fill="#123047" opacity="0.42"/><circle cx="343" cy="435" r="8" fill="#48d5e8" opacity="0.66"/><circle cx="426" cy="482" r="6" fill="#0f5ea8" opacity="0.66"/><circle cx="509" cy="529" r="6" fill="#123047" opacity="0.42"/><circle cx="592" cy="576" r="8" fill="#48d5e8" opacity="0.66"/><circle cx="675" cy="331" r="6" fill="#0f5ea8" opacity="0.66"/><circle cx="758" cy="378" r="6" fill="#123047" opacity="0.42"/><circle cx="841" cy="425" r="8" fill="#48d5e8" opacity="0.66"/><circle cx="334" cy="472" r="6" fill="#0f5ea8" opacity="0.66"/><circle cx="417" cy="519" r="6" fill="#123047" opacity="0.42"/><circle cx="500" cy="566" r="8" fill="#48d5e8" opacity="0.66"/><circle cx="583" cy="321" r="6" fill="#0f5ea8" opacity="0.66"/><circle cx="666" cy="368" r="6" fill="#123047" opacity="0.42"/><circle cx="749" cy="415" r="8" fill="#48d5e8" opacity="0.66"/><circle cx="832" cy="462" r="6" fill="#0f5ea8" opacity="0.66"/><circle cx="325" cy="509" r="6" fill="#123047" opacity="0.42"/><circle cx="408" cy="556" r="8" fill="#48d5e8" opacity="0.66"/><circle cx="491" cy="603" r="6" fill="#0f5ea8" opacity="0.66"/><circle cx="574" cy="358" r="6" fill="#123047" opacity="0.42"/><circle cx="657" cy="405" r="8" fill="#48d5e8" opacity="0.66"/><circle cx="740" cy="452" r="6" fill="#0f5ea8" opacity="0.66"/><circle cx="823" cy="499" r="6" fill="#123047" opacity="0.42"/><circle cx="316" cy="546" r="8" fill="#48d5e8" opacity="0.66"/><circle cx="399" cy="593" r="6" fill="#0f5ea8" opacity="0.66"/><circle cx="482" cy="348" r="6" fill="#123047" opacity="0.42"/><circle cx="565" cy="395" r="8" fill="#48d5e8" opacity="0.66"/><circle cx="648" cy="442" r="6" fill="#0f5ea8" opacity="0.66"/><circle cx="731" cy="489" r="6" fill="#123047" opacity="0.42"/>
      <path d="M282 600C374 548 428 566 510 500S626 414 716 456S806 542 882 348" fill="none" stroke="#123047" stroke-width="5" stroke-linecap="round"/>
      <path d="M282 600C374 548 428 566 510 500S626 414 716 456S806 542 882 348" fill="none" stroke="#48d5e8" stroke-width="12" opacity="0.18" stroke-linecap="round"/>
      
    <rect x="294" y="660" width="160" height="44" rx="15" fill="#ffffff" stroke="#bad0df" stroke-width="1.5"/>
    <circle cx="316" cy="682" r="6" fill="#48d5e8" opacity="0.9"/>
    <text x="334" y="689" text-anchor="start" fill="#0f172a" font-family="Inter, Arial, sans-serif" font-size="15" font-weight="820">prediction</text>
  
      
    <rect x="484" y="660" width="160" height="44" rx="15" fill="#ffffff" stroke="#bad0df" stroke-width="1.5"/>
    <circle cx="506" cy="682" r="6" fill="#48d5e8" opacity="0.9"/>
    <text x="524" y="689" text-anchor="start" fill="#0f172a" font-family="Inter, Arial, sans-serif" font-size="15" font-weight="820">clustering</text>
  
      
    <rect x="674" y="660" width="150" height="44" rx="15" fill="#ffffff" stroke="#bad0df" stroke-width="1.5"/>
    <circle cx="696" cy="682" r="6" fill="#48d5e8" opacity="0.9"/>
    <text x="714" y="689" text-anchor="start" fill="#0f172a" font-family="Inter, Arial, sans-serif" font-size="15" font-weight="820">discovery</text>
  
    </g>
    </g>
  
  </g>
</svg>
